<mxfile host="app.diagrams.net" agent="Mozilla/5.0 (Windows NT 10.0; Win64; x64) AppleWebKit/537.36 (KHTML, like Gecko) Chrome/131.0.0.0 Safari/537.36 Edg/131.0.0.0" version="26.0.5">
  <diagram id="C5RBs43oDa-KdzZeNtuy" name="Page-1">
    <mxGraphModel dx="3207" dy="2239" grid="1" gridSize="10" guides="1" tooltips="1" connect="1" arrows="1" fold="1" page="1" pageScale="1" pageWidth="827" pageHeight="1169" math="0" shadow="0">
      <root>
        <mxCell id="WIyWlLk6GJQsqaUBKTNV-0" />
        <mxCell id="WIyWlLk6GJQsqaUBKTNV-1" parent="WIyWlLk6GJQsqaUBKTNV-0" />
        <mxCell id="WCAbZ16qtilHg59DiqFT-0" value="" style="rounded=0;whiteSpace=wrap;html=1;" vertex="1" parent="WIyWlLk6GJQsqaUBKTNV-1">
          <mxGeometry x="-250" y="60" width="180" height="80" as="geometry" />
        </mxCell>
        <mxCell id="WCAbZ16qtilHg59DiqFT-1" value="Detailed_Delivery_Note" style="rounded=0;whiteSpace=wrap;html=1;" vertex="1" parent="WIyWlLk6GJQsqaUBKTNV-1">
          <mxGeometry x="-240" y="72.5" width="160" height="55" as="geometry" />
        </mxCell>
        <mxCell id="WCAbZ16qtilHg59DiqFT-2" style="edgeStyle=none;curved=1;rounded=0;orthogonalLoop=1;jettySize=auto;html=1;exitX=1;exitY=1;exitDx=0;exitDy=0;fontSize=12;startSize=8;endSize=8;" edge="1" parent="WIyWlLk6GJQsqaUBKTNV-1" source="WCAbZ16qtilHg59DiqFT-1" target="WCAbZ16qtilHg59DiqFT-1">
          <mxGeometry relative="1" as="geometry" />
        </mxCell>
        <mxCell id="WCAbZ16qtilHg59DiqFT-3" value="Delivery_Note" style="rounded=0;whiteSpace=wrap;html=1;" vertex="1" parent="WIyWlLk6GJQsqaUBKTNV-1">
          <mxGeometry x="-420" y="-50" width="120" height="60" as="geometry" />
        </mxCell>
        <mxCell id="WCAbZ16qtilHg59DiqFT-4" value="Supplies" style="rounded=0;whiteSpace=wrap;html=1;" vertex="1" parent="WIyWlLk6GJQsqaUBKTNV-1">
          <mxGeometry x="30" y="-50" width="120" height="60" as="geometry" />
        </mxCell>
        <mxCell id="WCAbZ16qtilHg59DiqFT-5" value="" style="rounded=0;whiteSpace=wrap;html=1;" vertex="1" parent="WIyWlLk6GJQsqaUBKTNV-1">
          <mxGeometry x="-10" y="300" width="200" height="80" as="geometry" />
        </mxCell>
        <mxCell id="WCAbZ16qtilHg59DiqFT-6" value="Purchase_Order_Details" style="rounded=0;whiteSpace=wrap;html=1;" vertex="1" parent="WIyWlLk6GJQsqaUBKTNV-1">
          <mxGeometry y="310" width="180" height="60" as="geometry" />
        </mxCell>
        <mxCell id="WCAbZ16qtilHg59DiqFT-7" value="N" style="edgeStyle=none;curved=1;rounded=0;orthogonalLoop=1;jettySize=auto;html=1;entryX=0;entryY=0.5;entryDx=0;entryDy=0;fontSize=12;startSize=8;endSize=8;" edge="1" parent="WIyWlLk6GJQsqaUBKTNV-1" source="WCAbZ16qtilHg59DiqFT-8" target="WCAbZ16qtilHg59DiqFT-0">
          <mxGeometry relative="1" as="geometry" />
        </mxCell>
        <mxCell id="WCAbZ16qtilHg59DiqFT-8" value="Có" style="rhombus;whiteSpace=wrap;html=1;" vertex="1" parent="WIyWlLk6GJQsqaUBKTNV-1">
          <mxGeometry x="-400" y="60" width="80" height="80" as="geometry" />
        </mxCell>
        <mxCell id="WCAbZ16qtilHg59DiqFT-9" value="1" style="endArrow=none;html=1;rounded=0;fontSize=12;startSize=8;endSize=8;curved=1;entryX=0.5;entryY=1;entryDx=0;entryDy=0;exitX=0.5;exitY=0;exitDx=0;exitDy=0;" edge="1" parent="WIyWlLk6GJQsqaUBKTNV-1" source="WCAbZ16qtilHg59DiqFT-8" target="WCAbZ16qtilHg59DiqFT-3">
          <mxGeometry width="50" height="50" relative="1" as="geometry">
            <mxPoint x="-60" y="200" as="sourcePoint" />
            <mxPoint x="-10" y="150" as="targetPoint" />
          </mxGeometry>
        </mxCell>
        <mxCell id="WCAbZ16qtilHg59DiqFT-10" value="N" style="edgeStyle=none;curved=1;rounded=0;orthogonalLoop=1;jettySize=auto;html=1;entryX=1;entryY=0.5;entryDx=0;entryDy=0;fontSize=12;startSize=8;endSize=8;" edge="1" parent="WIyWlLk6GJQsqaUBKTNV-1" source="WCAbZ16qtilHg59DiqFT-11" target="WCAbZ16qtilHg59DiqFT-0">
          <mxGeometry relative="1" as="geometry" />
        </mxCell>
        <mxCell id="WCAbZ16qtilHg59DiqFT-11" value="Có" style="rhombus;whiteSpace=wrap;html=1;" vertex="1" parent="WIyWlLk6GJQsqaUBKTNV-1">
          <mxGeometry x="-10" y="60" width="80" height="80" as="geometry" />
        </mxCell>
        <mxCell id="WCAbZ16qtilHg59DiqFT-12" value="1" style="endArrow=none;html=1;rounded=0;fontSize=12;startSize=8;endSize=8;curved=1;entryX=0;entryY=1;entryDx=0;entryDy=0;exitX=0.5;exitY=0;exitDx=0;exitDy=0;" edge="1" parent="WIyWlLk6GJQsqaUBKTNV-1" source="WCAbZ16qtilHg59DiqFT-11" target="WCAbZ16qtilHg59DiqFT-4">
          <mxGeometry width="50" height="50" relative="1" as="geometry">
            <mxPoint x="-40" y="200" as="sourcePoint" />
            <mxPoint x="10" y="150" as="targetPoint" />
          </mxGeometry>
        </mxCell>
        <mxCell id="WCAbZ16qtilHg59DiqFT-13" value="Có" style="rhombus;whiteSpace=wrap;html=1;" vertex="1" parent="WIyWlLk6GJQsqaUBKTNV-1">
          <mxGeometry x="50" y="150" width="80" height="80" as="geometry" />
        </mxCell>
        <mxCell id="WCAbZ16qtilHg59DiqFT-14" value="N" style="edgeStyle=none;curved=1;rounded=0;orthogonalLoop=1;jettySize=auto;html=1;entryX=0.5;entryY=0;entryDx=0;entryDy=0;fontSize=12;startSize=8;endSize=8;" edge="1" parent="WIyWlLk6GJQsqaUBKTNV-1" source="WCAbZ16qtilHg59DiqFT-13" target="WCAbZ16qtilHg59DiqFT-5">
          <mxGeometry relative="1" as="geometry" />
        </mxCell>
        <mxCell id="WCAbZ16qtilHg59DiqFT-15" value="1" style="endArrow=none;html=1;rounded=0;fontSize=12;startSize=8;endSize=8;curved=1;entryX=0.5;entryY=1;entryDx=0;entryDy=0;exitX=0.5;exitY=0;exitDx=0;exitDy=0;" edge="1" parent="WIyWlLk6GJQsqaUBKTNV-1" source="WCAbZ16qtilHg59DiqFT-13" target="WCAbZ16qtilHg59DiqFT-4">
          <mxGeometry width="50" height="50" relative="1" as="geometry">
            <mxPoint x="-40" y="200" as="sourcePoint" />
            <mxPoint x="10" y="150" as="targetPoint" />
          </mxGeometry>
        </mxCell>
        <mxCell id="WCAbZ16qtilHg59DiqFT-16" value="" style="rounded=0;whiteSpace=wrap;html=1;" vertex="1" parent="WIyWlLk6GJQsqaUBKTNV-1">
          <mxGeometry x="250" y="60" width="180" height="80" as="geometry" />
        </mxCell>
        <mxCell id="WCAbZ16qtilHg59DiqFT-17" value="Detailed_Receipt_Note" style="rounded=0;whiteSpace=wrap;html=1;" vertex="1" parent="WIyWlLk6GJQsqaUBKTNV-1">
          <mxGeometry x="260" y="72.5" width="160" height="55" as="geometry" />
        </mxCell>
        <mxCell id="WCAbZ16qtilHg59DiqFT-18" value="N" style="edgeStyle=none;curved=1;rounded=0;orthogonalLoop=1;jettySize=auto;html=1;entryX=0;entryY=0.5;entryDx=0;entryDy=0;fontSize=12;startSize=8;endSize=8;" edge="1" parent="WIyWlLk6GJQsqaUBKTNV-1" source="WCAbZ16qtilHg59DiqFT-19" target="WCAbZ16qtilHg59DiqFT-16">
          <mxGeometry relative="1" as="geometry" />
        </mxCell>
        <mxCell id="WCAbZ16qtilHg59DiqFT-19" value="Có" style="rhombus;whiteSpace=wrap;html=1;" vertex="1" parent="WIyWlLk6GJQsqaUBKTNV-1">
          <mxGeometry x="110" y="60" width="80" height="80" as="geometry" />
        </mxCell>
        <mxCell id="WCAbZ16qtilHg59DiqFT-20" value="1" style="endArrow=none;html=1;rounded=0;fontSize=12;startSize=8;endSize=8;curved=1;entryX=1;entryY=1;entryDx=0;entryDy=0;exitX=0.5;exitY=0;exitDx=0;exitDy=0;" edge="1" parent="WIyWlLk6GJQsqaUBKTNV-1" source="WCAbZ16qtilHg59DiqFT-19" target="WCAbZ16qtilHg59DiqFT-4">
          <mxGeometry width="50" height="50" relative="1" as="geometry">
            <mxPoint x="-40" y="200" as="sourcePoint" />
            <mxPoint x="10" y="150" as="targetPoint" />
          </mxGeometry>
        </mxCell>
        <mxCell id="WCAbZ16qtilHg59DiqFT-21" value="Receipt_Note" style="rounded=0;whiteSpace=wrap;html=1;" vertex="1" parent="WIyWlLk6GJQsqaUBKTNV-1">
          <mxGeometry x="490" y="-50" width="120" height="60" as="geometry" />
        </mxCell>
        <mxCell id="WCAbZ16qtilHg59DiqFT-22" value="N" style="edgeStyle=none;curved=1;rounded=0;orthogonalLoop=1;jettySize=auto;html=1;entryX=1;entryY=0.5;entryDx=0;entryDy=0;fontSize=12;startSize=8;endSize=8;" edge="1" parent="WIyWlLk6GJQsqaUBKTNV-1" source="WCAbZ16qtilHg59DiqFT-23" target="WCAbZ16qtilHg59DiqFT-16">
          <mxGeometry relative="1" as="geometry" />
        </mxCell>
        <mxCell id="WCAbZ16qtilHg59DiqFT-23" value="Có" style="rhombus;whiteSpace=wrap;html=1;" vertex="1" parent="WIyWlLk6GJQsqaUBKTNV-1">
          <mxGeometry x="510" y="60" width="80" height="80" as="geometry" />
        </mxCell>
        <mxCell id="WCAbZ16qtilHg59DiqFT-24" value="1" style="endArrow=none;html=1;rounded=0;fontSize=12;startSize=8;endSize=8;curved=1;entryX=0.5;entryY=1;entryDx=0;entryDy=0;exitX=0.5;exitY=0;exitDx=0;exitDy=0;" edge="1" parent="WIyWlLk6GJQsqaUBKTNV-1" source="WCAbZ16qtilHg59DiqFT-23">
          <mxGeometry width="50" height="50" relative="1" as="geometry">
            <mxPoint x="850" y="200" as="sourcePoint" />
            <mxPoint x="550" y="10" as="targetPoint" />
          </mxGeometry>
        </mxCell>
        <mxCell id="WCAbZ16qtilHg59DiqFT-25" value="N" style="edgeStyle=none;curved=1;rounded=0;orthogonalLoop=1;jettySize=auto;html=1;entryX=0.5;entryY=1;entryDx=0;entryDy=0;fontSize=12;startSize=8;endSize=8;" edge="1" parent="WIyWlLk6GJQsqaUBKTNV-1" source="WCAbZ16qtilHg59DiqFT-26" target="WCAbZ16qtilHg59DiqFT-5">
          <mxGeometry relative="1" as="geometry" />
        </mxCell>
        <mxCell id="WCAbZ16qtilHg59DiqFT-26" value="Có" style="rhombus;whiteSpace=wrap;html=1;" vertex="1" parent="WIyWlLk6GJQsqaUBKTNV-1">
          <mxGeometry x="50" y="460" width="80" height="80" as="geometry" />
        </mxCell>
        <mxCell id="WCAbZ16qtilHg59DiqFT-27" value="Purchase_Order" style="rounded=0;whiteSpace=wrap;html=1;" vertex="1" parent="WIyWlLk6GJQsqaUBKTNV-1">
          <mxGeometry x="30" y="600" width="120" height="60" as="geometry" />
        </mxCell>
        <mxCell id="WCAbZ16qtilHg59DiqFT-28" value="1" style="endArrow=none;html=1;rounded=0;fontSize=12;startSize=8;endSize=8;curved=1;exitX=0.5;exitY=0;exitDx=0;exitDy=0;entryX=0.5;entryY=1;entryDx=0;entryDy=0;entryPerimeter=0;" edge="1" parent="WIyWlLk6GJQsqaUBKTNV-1" source="WCAbZ16qtilHg59DiqFT-27" target="WCAbZ16qtilHg59DiqFT-26">
          <mxGeometry width="50" height="50" relative="1" as="geometry">
            <mxPoint x="40" y="560" as="sourcePoint" />
            <mxPoint x="90" y="550" as="targetPoint" />
          </mxGeometry>
        </mxCell>
        <mxCell id="WCAbZ16qtilHg59DiqFT-29" value="N" style="edgeStyle=none;curved=1;rounded=0;orthogonalLoop=1;jettySize=auto;html=1;entryX=0.5;entryY=1;entryDx=0;entryDy=0;fontSize=12;startSize=8;endSize=8;" edge="1" parent="WIyWlLk6GJQsqaUBKTNV-1" source="WCAbZ16qtilHg59DiqFT-30">
          <mxGeometry relative="1" as="geometry">
            <mxPoint x="90" y="660" as="targetPoint" />
          </mxGeometry>
        </mxCell>
        <mxCell id="WCAbZ16qtilHg59DiqFT-30" value="Có" style="rhombus;whiteSpace=wrap;html=1;" vertex="1" parent="WIyWlLk6GJQsqaUBKTNV-1">
          <mxGeometry x="50" y="740" width="80" height="80" as="geometry" />
        </mxCell>
        <mxCell id="WCAbZ16qtilHg59DiqFT-31" value="Vendor" style="rounded=0;whiteSpace=wrap;html=1;" vertex="1" parent="WIyWlLk6GJQsqaUBKTNV-1">
          <mxGeometry x="30" y="880" width="120" height="60" as="geometry" />
        </mxCell>
        <mxCell id="WCAbZ16qtilHg59DiqFT-32" value="1" style="endArrow=none;html=1;rounded=0;fontSize=12;startSize=8;endSize=8;curved=1;exitX=0.5;exitY=0;exitDx=0;exitDy=0;entryX=0.5;entryY=1;entryDx=0;entryDy=0;entryPerimeter=0;" edge="1" parent="WIyWlLk6GJQsqaUBKTNV-1" source="WCAbZ16qtilHg59DiqFT-31" target="WCAbZ16qtilHg59DiqFT-30">
          <mxGeometry width="50" height="50" relative="1" as="geometry">
            <mxPoint x="40" y="840" as="sourcePoint" />
            <mxPoint x="90" y="830" as="targetPoint" />
          </mxGeometry>
        </mxCell>
        <mxCell id="WCAbZ16qtilHg59DiqFT-33" value="DN_total_amount" style="ellipse;whiteSpace=wrap;html=1;" vertex="1" parent="WIyWlLk6GJQsqaUBKTNV-1">
          <mxGeometry x="-270" y="-180" width="120" height="80" as="geometry" />
        </mxCell>
        <mxCell id="WCAbZ16qtilHg59DiqFT-34" value="DN_created" style="ellipse;whiteSpace=wrap;html=1;" vertex="1" parent="WIyWlLk6GJQsqaUBKTNV-1">
          <mxGeometry x="-590" y="-30" width="120" height="80" as="geometry" />
        </mxCell>
        <mxCell id="WCAbZ16qtilHg59DiqFT-35" value="&lt;span id=&quot;docs-internal-guid-45e5a63b-7fff-4a9e-bf0a-3b0f3cfe5757&quot;&gt;&lt;p style=&quot;line-height:1.38;margin-top:0pt;margin-bottom:0pt;&quot; dir=&quot;ltr&quot;&gt;&lt;span style=&quot;font-size: 9pt; font-family: Arial, sans-serif; font-variant-numeric: normal; font-variant-east-asian: normal; font-variant-alternates: normal; font-variant-position: normal; font-variant-emoji: normal; text-decoration-line: underline; text-decoration-skip-ink: none; vertical-align: baseline; white-space-collapse: preserve;&quot;&gt;DN_id&lt;/span&gt;&lt;/p&gt;&lt;/span&gt;" style="ellipse;whiteSpace=wrap;html=1;" vertex="1" parent="WIyWlLk6GJQsqaUBKTNV-1">
          <mxGeometry x="-420" y="-230" width="120" height="80" as="geometry" />
        </mxCell>
        <mxCell id="WCAbZ16qtilHg59DiqFT-36" value="Ven id" style="ellipse;whiteSpace=wrap;html=1;" vertex="1" parent="WIyWlLk6GJQsqaUBKTNV-1">
          <mxGeometry x="-210" y="800" width="120" height="80" as="geometry" />
        </mxCell>
        <mxCell id="WCAbZ16qtilHg59DiqFT-37" value="Ven_email" style="ellipse;whiteSpace=wrap;html=1;" vertex="1" parent="WIyWlLk6GJQsqaUBKTNV-1">
          <mxGeometry x="230" y="930" width="120" height="80" as="geometry" />
        </mxCell>
        <mxCell id="WCAbZ16qtilHg59DiqFT-38" value="Ven_name" style="ellipse;whiteSpace=wrap;html=1;" vertex="1" parent="WIyWlLk6GJQsqaUBKTNV-1">
          <mxGeometry x="-150" y="940" width="120" height="80" as="geometry" />
        </mxCell>
        <mxCell id="WCAbZ16qtilHg59DiqFT-39" value="Ven_phone" style="ellipse;whiteSpace=wrap;html=1;" vertex="1" parent="WIyWlLk6GJQsqaUBKTNV-1">
          <mxGeometry x="120" y="1040" width="120" height="80" as="geometry" />
        </mxCell>
        <mxCell id="WCAbZ16qtilHg59DiqFT-40" value="DN_status" style="ellipse;whiteSpace=wrap;html=1;" vertex="1" parent="WIyWlLk6GJQsqaUBKTNV-1">
          <mxGeometry x="-240" y="-80" width="120" height="80" as="geometry" />
        </mxCell>
        <mxCell id="WCAbZ16qtilHg59DiqFT-41" value="Ven_status" style="ellipse;whiteSpace=wrap;html=1;" vertex="1" parent="WIyWlLk6GJQsqaUBKTNV-1">
          <mxGeometry x="280" y="800" width="120" height="80" as="geometry" />
        </mxCell>
        <mxCell id="WCAbZ16qtilHg59DiqFT-42" value="DDN_export_quanlity" style="ellipse;whiteSpace=wrap;html=1;" vertex="1" parent="WIyWlLk6GJQsqaUBKTNV-1">
          <mxGeometry x="-70" y="200" width="130" height="80" as="geometry" />
        </mxCell>
        <mxCell id="WCAbZ16qtilHg59DiqFT-43" value="DN_export_date" style="ellipse;whiteSpace=wrap;html=1;" vertex="1" parent="WIyWlLk6GJQsqaUBKTNV-1">
          <mxGeometry x="-580" y="-160" width="120" height="80" as="geometry" />
        </mxCell>
        <mxCell id="WCAbZ16qtilHg59DiqFT-44" value="&lt;span id=&quot;docs-internal-guid-45e5a63b-7fff-4a9e-bf0a-3b0f3cfe5757&quot;&gt;&lt;p style=&quot;line-height:1.38;margin-top:0pt;margin-bottom:0pt;&quot; dir=&quot;ltr&quot;&gt;&lt;span style=&quot;font-size: 9pt; font-family: Arial, sans-serif; font-variant-numeric: normal; font-variant-east-asian: normal; font-variant-alternates: normal; font-variant-position: normal; font-variant-emoji: normal; text-decoration-line: underline; text-decoration-skip-ink: none; vertical-align: baseline; white-space-collapse: preserve;&quot;&gt;DN_id&lt;/span&gt;&lt;/p&gt;&lt;/span&gt;" style="ellipse;whiteSpace=wrap;html=1;" vertex="1" parent="WIyWlLk6GJQsqaUBKTNV-1">
          <mxGeometry x="-490" y="200" width="120" height="80" as="geometry" />
        </mxCell>
        <mxCell id="WCAbZ16qtilHg59DiqFT-45" value="Sup_status" style="ellipse;whiteSpace=wrap;html=1;" vertex="1" parent="WIyWlLk6GJQsqaUBKTNV-1">
          <mxGeometry x="170" y="-200" width="120" height="80" as="geometry" />
        </mxCell>
        <mxCell id="WCAbZ16qtilHg59DiqFT-46" value="&lt;span id=&quot;docs-internal-guid-1eec9cea-7fff-f70f-21c7-a1f009fb948f&quot;&gt;&lt;p style=&quot;line-height:1.38;margin-top:0pt;margin-bottom:0pt;&quot; dir=&quot;ltr&quot;&gt;&lt;span style=&quot;font-size: 9pt; font-family: Arial, sans-serif; font-variant-numeric: normal; font-variant-east-asian: normal; font-variant-alternates: normal; font-variant-position: normal; font-variant-emoji: normal; text-decoration-line: underline; text-decoration-skip-ink: none; vertical-align: baseline; white-space-collapse: preserve;&quot;&gt;Sup_id&lt;/span&gt;&lt;/p&gt;&lt;/span&gt;" style="ellipse;whiteSpace=wrap;html=1;" vertex="1" parent="WIyWlLk6GJQsqaUBKTNV-1">
          <mxGeometry x="-350" y="200" width="120" height="80" as="geometry" />
        </mxCell>
        <mxCell id="WCAbZ16qtilHg59DiqFT-47" value="Sup_name" style="ellipse;whiteSpace=wrap;html=1;" vertex="1" parent="WIyWlLk6GJQsqaUBKTNV-1">
          <mxGeometry x="30" y="-280" width="120" height="80" as="geometry" />
        </mxCell>
        <mxCell id="WCAbZ16qtilHg59DiqFT-48" value="DDN_export_unit_price" style="ellipse;whiteSpace=wrap;html=1;" vertex="1" parent="WIyWlLk6GJQsqaUBKTNV-1">
          <mxGeometry x="-210" y="200" width="130" height="80" as="geometry" />
        </mxCell>
        <mxCell id="WCAbZ16qtilHg59DiqFT-49" value="&lt;span id=&quot;docs-internal-guid-1eec9cea-7fff-f70f-21c7-a1f009fb948f&quot;&gt;&lt;p style=&quot;line-height:1.38;margin-top:0pt;margin-bottom:0pt;&quot; dir=&quot;ltr&quot;&gt;&lt;span style=&quot;font-size: 9pt; font-family: Arial, sans-serif; font-variant-numeric: normal; font-variant-east-asian: normal; font-variant-alternates: normal; font-variant-position: normal; font-variant-emoji: normal; text-decoration-line: underline; text-decoration-skip-ink: none; vertical-align: baseline; white-space-collapse: preserve;&quot;&gt;Sup_id&lt;/span&gt;&lt;/p&gt;&lt;/span&gt;" style="ellipse;whiteSpace=wrap;html=1;" vertex="1" parent="WIyWlLk6GJQsqaUBKTNV-1">
          <mxGeometry x="-100" y="-200" width="120" height="80" as="geometry" />
        </mxCell>
        <mxCell id="WCAbZ16qtilHg59DiqFT-50" value="PO_status" style="ellipse;whiteSpace=wrap;html=1;" vertex="1" parent="WIyWlLk6GJQsqaUBKTNV-1">
          <mxGeometry x="-210" y="640" width="120" height="80" as="geometry" />
        </mxCell>
        <mxCell id="WCAbZ16qtilHg59DiqFT-51" value="DRN_import_quanlity" style="ellipse;whiteSpace=wrap;html=1;" vertex="1" parent="WIyWlLk6GJQsqaUBKTNV-1">
          <mxGeometry x="560" y="200" width="120" height="80" as="geometry" />
        </mxCell>
        <mxCell id="WCAbZ16qtilHg59DiqFT-52" value="DRN_import_unit_price" style="ellipse;whiteSpace=wrap;html=1;" vertex="1" parent="WIyWlLk6GJQsqaUBKTNV-1">
          <mxGeometry x="420" y="200" width="130" height="80" as="geometry" />
        </mxCell>
        <mxCell id="WCAbZ16qtilHg59DiqFT-53" value="&lt;span id=&quot;docs-internal-guid-ee027b86-7fff-11b8-cfb4-ac5f33da39d7&quot;&gt;&lt;p style=&quot;line-height:1.38;margin-top:0pt;margin-bottom:0pt;&quot; dir=&quot;ltr&quot;&gt;&lt;span style=&quot;font-size: 9pt; font-family: Arial, sans-serif; font-variant-numeric: normal; font-variant-east-asian: normal; font-variant-alternates: normal; font-variant-position: normal; font-variant-emoji: normal; text-decoration-line: underline; text-decoration-skip-ink: none; vertical-align: baseline; white-space-collapse: preserve;&quot;&gt;RN_id&lt;/span&gt;&lt;/p&gt;&lt;/span&gt;" style="ellipse;whiteSpace=wrap;html=1;" vertex="1" parent="WIyWlLk6GJQsqaUBKTNV-1">
          <mxGeometry x="130" y="200" width="120" height="80" as="geometry" />
        </mxCell>
        <mxCell id="WCAbZ16qtilHg59DiqFT-54" value="&lt;span style=&quot;font-family: Arial, sans-serif; white-space-collapse: preserve; text-decoration-line: underline;&quot;&gt;Sup_id&lt;/span&gt;" style="ellipse;whiteSpace=wrap;html=1;" vertex="1" parent="WIyWlLk6GJQsqaUBKTNV-1">
          <mxGeometry x="270" y="200" width="120" height="80" as="geometry" />
        </mxCell>
        <mxCell id="WCAbZ16qtilHg59DiqFT-55" value="RN_total_amount" style="ellipse;whiteSpace=wrap;html=1;" vertex="1" parent="WIyWlLk6GJQsqaUBKTNV-1">
          <mxGeometry x="650" y="-160" width="120" height="80" as="geometry" />
        </mxCell>
        <mxCell id="WCAbZ16qtilHg59DiqFT-56" value="&lt;span id=&quot;docs-internal-guid-ee027b86-7fff-11b8-cfb4-ac5f33da39d7&quot;&gt;&lt;p style=&quot;line-height:1.38;margin-top:0pt;margin-bottom:0pt;&quot; dir=&quot;ltr&quot;&gt;&lt;span style=&quot;font-size: 9pt; font-family: Arial, sans-serif; font-variant-numeric: normal; font-variant-east-asian: normal; font-variant-alternates: normal; font-variant-position: normal; font-variant-emoji: normal; text-decoration-line: underline; text-decoration-skip-ink: none; vertical-align: baseline; white-space-collapse: preserve;&quot;&gt;RN_id&lt;/span&gt;&lt;/p&gt;&lt;/span&gt;" style="ellipse;whiteSpace=wrap;html=1;" vertex="1" parent="WIyWlLk6GJQsqaUBKTNV-1">
          <mxGeometry x="330" y="-80" width="120" height="80" as="geometry" />
        </mxCell>
        <mxCell id="WCAbZ16qtilHg59DiqFT-57" value="RN_created" style="ellipse;whiteSpace=wrap;html=1;" vertex="1" parent="WIyWlLk6GJQsqaUBKTNV-1">
          <mxGeometry x="490" y="-230" width="120" height="80" as="geometry" />
        </mxCell>
        <mxCell id="WCAbZ16qtilHg59DiqFT-58" value="RN_status" style="ellipse;whiteSpace=wrap;html=1;" vertex="1" parent="WIyWlLk6GJQsqaUBKTNV-1">
          <mxGeometry x="680" y="-60" width="120" height="80" as="geometry" />
        </mxCell>
        <mxCell id="WCAbZ16qtilHg59DiqFT-59" value="RN_import_date" style="ellipse;whiteSpace=wrap;html=1;" vertex="1" parent="WIyWlLk6GJQsqaUBKTNV-1">
          <mxGeometry x="360" y="-180" width="120" height="80" as="geometry" />
        </mxCell>
        <mxCell id="WCAbZ16qtilHg59DiqFT-60" value="&lt;span id=&quot;docs-internal-guid-f1857da3-7fff-c852-a77d-b395aae0bc64&quot;&gt;&lt;p style=&quot;line-height:1.38;margin-top:0pt;margin-bottom:0pt;&quot; dir=&quot;ltr&quot;&gt;&lt;span style=&quot;font-size: 9pt; font-family: Arial, sans-serif; font-variant-numeric: normal; font-variant-east-asian: normal; font-variant-alternates: normal; font-variant-position: normal; font-variant-emoji: normal; text-decoration-line: underline; text-decoration-skip-ink: none; vertical-align: baseline; white-space-collapse: preserve;&quot;&gt;Ven_id&lt;/span&gt;&lt;/p&gt;&lt;/span&gt;" style="ellipse;whiteSpace=wrap;html=1;" vertex="1" parent="WIyWlLk6GJQsqaUBKTNV-1">
          <mxGeometry x="-210" y="510" width="120" height="80" as="geometry" />
        </mxCell>
        <mxCell id="WCAbZ16qtilHg59DiqFT-61" value="PO_order_date" style="ellipse;whiteSpace=wrap;html=1;" vertex="1" parent="WIyWlLk6GJQsqaUBKTNV-1">
          <mxGeometry x="280" y="640" width="120" height="80" as="geometry" />
        </mxCell>
        <mxCell id="WCAbZ16qtilHg59DiqFT-62" value="&lt;span id=&quot;docs-internal-guid-6b329b52-7fff-71e5-e26a-ae6d7c412718&quot;&gt;&lt;p style=&quot;line-height:1.38;margin-top:0pt;margin-bottom:0pt;&quot; dir=&quot;ltr&quot;&gt;&lt;span style=&quot;font-size: 9pt; font-family: Arial, sans-serif; font-variant-numeric: normal; font-variant-east-asian: normal; font-variant-alternates: normal; font-variant-position: normal; font-variant-emoji: normal; text-decoration-line: underline; text-decoration-skip-ink: none; vertical-align: baseline; white-space-collapse: preserve;&quot;&gt;PO_id&lt;/span&gt;&lt;/p&gt;&lt;/span&gt;" style="ellipse;whiteSpace=wrap;html=1;" vertex="1" parent="WIyWlLk6GJQsqaUBKTNV-1">
          <mxGeometry x="280" y="510" width="120" height="80" as="geometry" />
        </mxCell>
        <mxCell id="WCAbZ16qtilHg59DiqFT-63" value="&lt;span id=&quot;docs-internal-guid-6b329b52-7fff-71e5-e26a-ae6d7c412718&quot;&gt;&lt;p style=&quot;line-height:1.38;margin-top:0pt;margin-bottom:0pt;&quot; dir=&quot;ltr&quot;&gt;&lt;span style=&quot;font-size: 9pt; font-family: Arial, sans-serif; font-variant-numeric: normal; font-variant-east-asian: normal; font-variant-alternates: normal; font-variant-position: normal; font-variant-emoji: normal; text-decoration-line: underline; text-decoration-skip-ink: none; vertical-align: baseline; white-space-collapse: preserve;&quot;&gt;PO_id&lt;/span&gt;&lt;/p&gt;&lt;/span&gt;" style="ellipse;whiteSpace=wrap;html=1;" vertex="1" parent="WIyWlLk6GJQsqaUBKTNV-1">
          <mxGeometry x="280" y="360" width="120" height="80" as="geometry" />
        </mxCell>
        <mxCell id="WCAbZ16qtilHg59DiqFT-64" value="&lt;span id=&quot;docs-internal-guid-1eec9cea-7fff-f70f-21c7-a1f009fb948f&quot;&gt;&lt;p style=&quot;line-height:1.38;margin-top:0pt;margin-bottom:0pt;&quot; dir=&quot;ltr&quot;&gt;&lt;span style=&quot;font-size: 9pt; font-family: Arial, sans-serif; font-variant-numeric: normal; font-variant-east-asian: normal; font-variant-alternates: normal; font-variant-position: normal; font-variant-emoji: normal; text-decoration-line: underline; text-decoration-skip-ink: none; vertical-align: baseline; white-space-collapse: preserve;&quot;&gt;Sup_id&lt;/span&gt;&lt;/p&gt;&lt;/span&gt;" style="ellipse;whiteSpace=wrap;html=1;" vertex="1" parent="WIyWlLk6GJQsqaUBKTNV-1">
          <mxGeometry x="-210" y="360" width="120" height="80" as="geometry" />
        </mxCell>
        <mxCell id="WCAbZ16qtilHg59DiqFT-65" value="Ven_address" style="ellipse;whiteSpace=wrap;html=1;" vertex="1" parent="WIyWlLk6GJQsqaUBKTNV-1">
          <mxGeometry x="-40" y="1040" width="120" height="80" as="geometry" />
        </mxCell>
        <mxCell id="WCAbZ16qtilHg59DiqFT-66" value="" style="endArrow=none;html=1;rounded=0;fontSize=12;startSize=8;endSize=8;curved=1;entryX=0.5;entryY=1;entryDx=0;entryDy=0;exitX=0.5;exitY=0;exitDx=0;exitDy=0;" edge="1" parent="WIyWlLk6GJQsqaUBKTNV-1" source="WCAbZ16qtilHg59DiqFT-3" target="WCAbZ16qtilHg59DiqFT-35">
          <mxGeometry width="50" height="50" relative="1" as="geometry">
            <mxPoint x="-540" y="640" as="sourcePoint" />
            <mxPoint x="-540" y="450" as="targetPoint" />
          </mxGeometry>
        </mxCell>
        <mxCell id="WCAbZ16qtilHg59DiqFT-67" value="" style="endArrow=none;html=1;rounded=0;fontSize=12;startSize=8;endSize=8;curved=1;entryX=0.5;entryY=1;entryDx=0;entryDy=0;exitX=0.5;exitY=0;exitDx=0;exitDy=0;" edge="1" parent="WIyWlLk6GJQsqaUBKTNV-1" source="WCAbZ16qtilHg59DiqFT-4" target="WCAbZ16qtilHg59DiqFT-47">
          <mxGeometry width="50" height="50" relative="1" as="geometry">
            <mxPoint x="-530" y="650" as="sourcePoint" />
            <mxPoint x="-530" y="460" as="targetPoint" />
          </mxGeometry>
        </mxCell>
        <mxCell id="WCAbZ16qtilHg59DiqFT-68" value="" style="endArrow=none;html=1;rounded=0;fontSize=12;startSize=8;endSize=8;curved=1;exitX=0.5;exitY=0;exitDx=0;exitDy=0;entryX=0.5;entryY=1;entryDx=0;entryDy=0;" edge="1" parent="WIyWlLk6GJQsqaUBKTNV-1" source="WCAbZ16qtilHg59DiqFT-21" target="WCAbZ16qtilHg59DiqFT-57">
          <mxGeometry width="50" height="50" relative="1" as="geometry">
            <mxPoint x="-510" y="670" as="sourcePoint" />
            <mxPoint x="547" y="-150" as="targetPoint" />
          </mxGeometry>
        </mxCell>
        <mxCell id="WCAbZ16qtilHg59DiqFT-69" value="" style="endArrow=none;html=1;rounded=0;fontSize=12;startSize=8;endSize=8;curved=1;entryX=0;entryY=0.25;entryDx=0;entryDy=0;exitX=1;exitY=0.5;exitDx=0;exitDy=0;" edge="1" parent="WIyWlLk6GJQsqaUBKTNV-1" source="WCAbZ16qtilHg59DiqFT-36" target="WCAbZ16qtilHg59DiqFT-31">
          <mxGeometry width="50" height="50" relative="1" as="geometry">
            <mxPoint x="-500" y="680" as="sourcePoint" />
            <mxPoint x="-500" y="490" as="targetPoint" />
          </mxGeometry>
        </mxCell>
        <mxCell id="WCAbZ16qtilHg59DiqFT-70" value="" style="endArrow=none;html=1;rounded=0;fontSize=12;startSize=8;endSize=8;curved=1;entryX=0.5;entryY=1;entryDx=0;entryDy=0;exitX=0.5;exitY=0;exitDx=0;exitDy=0;" edge="1" parent="WIyWlLk6GJQsqaUBKTNV-1" source="WCAbZ16qtilHg59DiqFT-65" target="WCAbZ16qtilHg59DiqFT-31">
          <mxGeometry width="50" height="50" relative="1" as="geometry">
            <mxPoint x="-490" y="690" as="sourcePoint" />
            <mxPoint x="-490" y="500" as="targetPoint" />
          </mxGeometry>
        </mxCell>
        <mxCell id="WCAbZ16qtilHg59DiqFT-71" value="" style="endArrow=none;html=1;rounded=0;fontSize=12;startSize=8;endSize=8;curved=1;entryX=0;entryY=0.5;entryDx=0;entryDy=0;exitX=1;exitY=0.75;exitDx=0;exitDy=0;" edge="1" parent="WIyWlLk6GJQsqaUBKTNV-1" source="WCAbZ16qtilHg59DiqFT-27" target="WCAbZ16qtilHg59DiqFT-61">
          <mxGeometry width="50" height="50" relative="1" as="geometry">
            <mxPoint x="-480" y="700" as="sourcePoint" />
            <mxPoint x="-480" y="510" as="targetPoint" />
          </mxGeometry>
        </mxCell>
        <mxCell id="WCAbZ16qtilHg59DiqFT-72" value="" style="endArrow=none;html=1;rounded=0;fontSize=12;startSize=8;endSize=8;curved=1;entryX=0;entryY=0.5;entryDx=0;entryDy=0;exitX=1;exitY=0.333;exitDx=0;exitDy=0;exitPerimeter=0;" edge="1" parent="WIyWlLk6GJQsqaUBKTNV-1" source="WCAbZ16qtilHg59DiqFT-27" target="WCAbZ16qtilHg59DiqFT-62">
          <mxGeometry width="50" height="50" relative="1" as="geometry">
            <mxPoint x="-470" y="710" as="sourcePoint" />
            <mxPoint x="-470" y="520" as="targetPoint" />
          </mxGeometry>
        </mxCell>
        <mxCell id="WCAbZ16qtilHg59DiqFT-73" value="" style="endArrow=none;html=1;rounded=0;fontSize=12;startSize=8;endSize=8;curved=1;entryX=1;entryY=0.5;entryDx=0;entryDy=0;exitX=0;exitY=0.333;exitDx=0;exitDy=0;exitPerimeter=0;" edge="1" parent="WIyWlLk6GJQsqaUBKTNV-1" source="WCAbZ16qtilHg59DiqFT-27" target="WCAbZ16qtilHg59DiqFT-60">
          <mxGeometry width="50" height="50" relative="1" as="geometry">
            <mxPoint x="30" y="630" as="sourcePoint" />
            <mxPoint x="-460" y="530" as="targetPoint" />
          </mxGeometry>
        </mxCell>
        <mxCell id="WCAbZ16qtilHg59DiqFT-74" value="" style="endArrow=none;html=1;rounded=0;fontSize=12;startSize=8;endSize=8;curved=1;entryX=0;entryY=0.75;entryDx=0;entryDy=0;exitX=1;exitY=0.5;exitDx=0;exitDy=0;" edge="1" parent="WIyWlLk6GJQsqaUBKTNV-1" source="WCAbZ16qtilHg59DiqFT-50" target="WCAbZ16qtilHg59DiqFT-27">
          <mxGeometry width="50" height="50" relative="1" as="geometry">
            <mxPoint x="-450" y="730" as="sourcePoint" />
            <mxPoint x="-450" y="540" as="targetPoint" />
          </mxGeometry>
        </mxCell>
        <mxCell id="WCAbZ16qtilHg59DiqFT-75" value="" style="endArrow=none;html=1;rounded=0;fontSize=12;startSize=8;endSize=8;curved=1;entryX=1;entryY=0.5;entryDx=0;entryDy=0;exitX=0.5;exitY=0;exitDx=0;exitDy=0;" edge="1" parent="WIyWlLk6GJQsqaUBKTNV-1" source="WCAbZ16qtilHg59DiqFT-63" target="WCAbZ16qtilHg59DiqFT-5">
          <mxGeometry width="50" height="50" relative="1" as="geometry">
            <mxPoint x="-440" y="740" as="sourcePoint" />
            <mxPoint x="-440" y="550" as="targetPoint" />
          </mxGeometry>
        </mxCell>
        <mxCell id="WCAbZ16qtilHg59DiqFT-76" value="" style="endArrow=none;html=1;rounded=0;fontSize=12;startSize=8;endSize=8;curved=1;entryX=0.5;entryY=1;entryDx=0;entryDy=0;exitX=0.5;exitY=0;exitDx=0;exitDy=0;" edge="1" parent="WIyWlLk6GJQsqaUBKTNV-1" source="WCAbZ16qtilHg59DiqFT-48" target="WCAbZ16qtilHg59DiqFT-0">
          <mxGeometry width="50" height="50" relative="1" as="geometry">
            <mxPoint x="-430" y="750" as="sourcePoint" />
            <mxPoint x="-430" y="560" as="targetPoint" />
          </mxGeometry>
        </mxCell>
        <mxCell id="WCAbZ16qtilHg59DiqFT-77" value="" style="endArrow=none;html=1;rounded=0;fontSize=12;startSize=8;endSize=8;curved=1;entryX=0;entryY=0.5;entryDx=0;entryDy=0;exitX=0.5;exitY=0;exitDx=0;exitDy=0;" edge="1" parent="WIyWlLk6GJQsqaUBKTNV-1" source="WCAbZ16qtilHg59DiqFT-64" target="WCAbZ16qtilHg59DiqFT-5">
          <mxGeometry width="50" height="50" relative="1" as="geometry">
            <mxPoint x="-120" y="360" as="sourcePoint" />
            <mxPoint x="-420" y="570" as="targetPoint" />
          </mxGeometry>
        </mxCell>
        <mxCell id="WCAbZ16qtilHg59DiqFT-78" value="" style="endArrow=none;html=1;rounded=0;fontSize=12;startSize=8;endSize=8;curved=1;entryX=0.5;entryY=1;entryDx=0;entryDy=0;exitX=0.5;exitY=0;exitDx=0;exitDy=0;" edge="1" parent="WIyWlLk6GJQsqaUBKTNV-1" source="WCAbZ16qtilHg59DiqFT-54" target="WCAbZ16qtilHg59DiqFT-16">
          <mxGeometry width="50" height="50" relative="1" as="geometry">
            <mxPoint x="-410" y="770" as="sourcePoint" />
            <mxPoint x="-410" y="580" as="targetPoint" />
          </mxGeometry>
        </mxCell>
        <mxCell id="WCAbZ16qtilHg59DiqFT-79" value="" style="endArrow=none;html=1;rounded=0;fontSize=12;startSize=8;endSize=8;curved=1;entryX=0.028;entryY=0.733;entryDx=0;entryDy=0;entryPerimeter=0;" edge="1" parent="WIyWlLk6GJQsqaUBKTNV-1" target="WCAbZ16qtilHg59DiqFT-33">
          <mxGeometry width="50" height="50" relative="1" as="geometry">
            <mxPoint x="-360" y="-50" as="sourcePoint" />
            <mxPoint x="-350" y="-140" as="targetPoint" />
          </mxGeometry>
        </mxCell>
        <mxCell id="WCAbZ16qtilHg59DiqFT-80" value="" style="endArrow=none;html=1;rounded=0;fontSize=12;startSize=8;endSize=8;curved=1;entryX=1;entryY=0.5;entryDx=0;entryDy=0;" edge="1" parent="WIyWlLk6GJQsqaUBKTNV-1" target="WCAbZ16qtilHg59DiqFT-43">
          <mxGeometry width="50" height="50" relative="1" as="geometry">
            <mxPoint x="-360" y="-50" as="sourcePoint" />
            <mxPoint x="-340" y="-130" as="targetPoint" />
          </mxGeometry>
        </mxCell>
        <mxCell id="WCAbZ16qtilHg59DiqFT-81" value="" style="endArrow=none;html=1;rounded=0;fontSize=12;startSize=8;endSize=8;curved=1;entryX=0;entryY=0.5;entryDx=0;entryDy=0;exitX=1;exitY=0.5;exitDx=0;exitDy=0;exitPerimeter=0;" edge="1" parent="WIyWlLk6GJQsqaUBKTNV-1" source="WCAbZ16qtilHg59DiqFT-3" target="WCAbZ16qtilHg59DiqFT-40">
          <mxGeometry width="50" height="50" relative="1" as="geometry">
            <mxPoint x="-290" y="-20" as="sourcePoint" />
            <mxPoint x="-330" y="-120" as="targetPoint" />
          </mxGeometry>
        </mxCell>
        <mxCell id="WCAbZ16qtilHg59DiqFT-82" value="" style="endArrow=none;html=1;rounded=0;fontSize=12;startSize=8;endSize=8;curved=1;entryX=1;entryY=0.5;entryDx=0;entryDy=0;exitX=0;exitY=0.5;exitDx=0;exitDy=0;" edge="1" parent="WIyWlLk6GJQsqaUBKTNV-1" source="WCAbZ16qtilHg59DiqFT-3" target="WCAbZ16qtilHg59DiqFT-34">
          <mxGeometry width="50" height="50" relative="1" as="geometry">
            <mxPoint x="-320" y="-10" as="sourcePoint" />
            <mxPoint x="-320" y="-110" as="targetPoint" />
          </mxGeometry>
        </mxCell>
        <mxCell id="WCAbZ16qtilHg59DiqFT-83" value="" style="endArrow=none;html=1;rounded=0;fontSize=12;startSize=8;endSize=8;curved=1;entryX=0.5;entryY=1;entryDx=0;entryDy=0;" edge="1" parent="WIyWlLk6GJQsqaUBKTNV-1" target="WCAbZ16qtilHg59DiqFT-49">
          <mxGeometry width="50" height="50" relative="1" as="geometry">
            <mxPoint x="90" y="-50" as="sourcePoint" />
            <mxPoint x="100" y="-190" as="targetPoint" />
          </mxGeometry>
        </mxCell>
        <mxCell id="WCAbZ16qtilHg59DiqFT-84" value="" style="endArrow=none;html=1;rounded=0;fontSize=12;startSize=8;endSize=8;curved=1;entryX=0.5;entryY=1;entryDx=0;entryDy=0;exitX=0.5;exitY=0;exitDx=0;exitDy=0;" edge="1" parent="WIyWlLk6GJQsqaUBKTNV-1" source="WCAbZ16qtilHg59DiqFT-4" target="WCAbZ16qtilHg59DiqFT-45">
          <mxGeometry width="50" height="50" relative="1" as="geometry">
            <mxPoint x="110" y="-30" as="sourcePoint" />
            <mxPoint x="110" y="-180" as="targetPoint" />
          </mxGeometry>
        </mxCell>
        <mxCell id="WCAbZ16qtilHg59DiqFT-85" value="" style="endArrow=none;html=1;rounded=0;fontSize=12;startSize=8;endSize=8;curved=1;exitX=0.5;exitY=0;exitDx=0;exitDy=0;entryX=0;entryY=0.5;entryDx=0;entryDy=0;" edge="1" parent="WIyWlLk6GJQsqaUBKTNV-1" source="WCAbZ16qtilHg59DiqFT-21" target="WCAbZ16qtilHg59DiqFT-55">
          <mxGeometry width="50" height="50" relative="1" as="geometry">
            <mxPoint x="560" y="-40" as="sourcePoint" />
            <mxPoint x="560" y="-140" as="targetPoint" />
          </mxGeometry>
        </mxCell>
        <mxCell id="WCAbZ16qtilHg59DiqFT-86" value="" style="endArrow=none;html=1;rounded=0;fontSize=12;startSize=8;endSize=8;curved=1;exitX=0.5;exitY=0;exitDx=0;exitDy=0;entryX=1;entryY=0.5;entryDx=0;entryDy=0;" edge="1" parent="WIyWlLk6GJQsqaUBKTNV-1" source="WCAbZ16qtilHg59DiqFT-21" target="WCAbZ16qtilHg59DiqFT-59">
          <mxGeometry width="50" height="50" relative="1" as="geometry">
            <mxPoint x="570" y="-30" as="sourcePoint" />
            <mxPoint x="570" y="-130" as="targetPoint" />
          </mxGeometry>
        </mxCell>
        <mxCell id="WCAbZ16qtilHg59DiqFT-87" value="" style="endArrow=none;html=1;rounded=0;fontSize=12;startSize=8;endSize=8;curved=1;entryX=0;entryY=0.5;entryDx=0;entryDy=0;exitX=1;exitY=0.5;exitDx=0;exitDy=0;" edge="1" parent="WIyWlLk6GJQsqaUBKTNV-1" source="WCAbZ16qtilHg59DiqFT-21" target="WCAbZ16qtilHg59DiqFT-58">
          <mxGeometry width="50" height="50" relative="1" as="geometry">
            <mxPoint x="620" y="-20" as="sourcePoint" />
            <mxPoint x="580" y="-120" as="targetPoint" />
          </mxGeometry>
        </mxCell>
        <mxCell id="WCAbZ16qtilHg59DiqFT-88" value="" style="endArrow=none;html=1;rounded=0;fontSize=12;startSize=8;endSize=8;curved=1;exitX=0;exitY=0.5;exitDx=0;exitDy=0;entryX=1;entryY=0.5;entryDx=0;entryDy=0;" edge="1" parent="WIyWlLk6GJQsqaUBKTNV-1" source="WCAbZ16qtilHg59DiqFT-21" target="WCAbZ16qtilHg59DiqFT-56">
          <mxGeometry width="50" height="50" relative="1" as="geometry">
            <mxPoint x="590" y="-10" as="sourcePoint" />
            <mxPoint x="590" y="-110" as="targetPoint" />
          </mxGeometry>
        </mxCell>
        <mxCell id="WCAbZ16qtilHg59DiqFT-89" value="" style="endArrow=none;html=1;rounded=0;fontSize=12;startSize=8;endSize=8;curved=1;entryX=0.5;entryY=1;entryDx=0;entryDy=0;exitX=0.5;exitY=0;exitDx=0;exitDy=0;" edge="1" parent="WIyWlLk6GJQsqaUBKTNV-1" source="WCAbZ16qtilHg59DiqFT-52" target="WCAbZ16qtilHg59DiqFT-16">
          <mxGeometry width="50" height="50" relative="1" as="geometry">
            <mxPoint x="340" y="210" as="sourcePoint" />
            <mxPoint x="350" y="150" as="targetPoint" />
          </mxGeometry>
        </mxCell>
        <mxCell id="WCAbZ16qtilHg59DiqFT-90" value="" style="endArrow=none;html=1;rounded=0;fontSize=12;startSize=8;endSize=8;curved=1;exitX=0.5;exitY=0;exitDx=0;exitDy=0;" edge="1" parent="WIyWlLk6GJQsqaUBKTNV-1" source="WCAbZ16qtilHg59DiqFT-53">
          <mxGeometry width="50" height="50" relative="1" as="geometry">
            <mxPoint x="350" y="220" as="sourcePoint" />
            <mxPoint x="340" y="140" as="targetPoint" />
          </mxGeometry>
        </mxCell>
        <mxCell id="WCAbZ16qtilHg59DiqFT-91" value="" style="endArrow=none;html=1;rounded=0;fontSize=12;startSize=8;endSize=8;curved=1;entryX=0.5;entryY=1;entryDx=0;entryDy=0;exitX=0.5;exitY=0;exitDx=0;exitDy=0;" edge="1" parent="WIyWlLk6GJQsqaUBKTNV-1" source="WCAbZ16qtilHg59DiqFT-51" target="WCAbZ16qtilHg59DiqFT-16">
          <mxGeometry width="50" height="50" relative="1" as="geometry">
            <mxPoint x="360" y="230" as="sourcePoint" />
            <mxPoint x="370" y="170" as="targetPoint" />
          </mxGeometry>
        </mxCell>
        <mxCell id="WCAbZ16qtilHg59DiqFT-92" value="" style="endArrow=none;html=1;rounded=0;fontSize=12;startSize=8;endSize=8;curved=1;exitX=0.5;exitY=0;exitDx=0;exitDy=0;" edge="1" parent="WIyWlLk6GJQsqaUBKTNV-1" source="WCAbZ16qtilHg59DiqFT-42">
          <mxGeometry width="50" height="50" relative="1" as="geometry">
            <mxPoint x="-140" y="210" as="sourcePoint" />
            <mxPoint x="-160" y="140" as="targetPoint" />
          </mxGeometry>
        </mxCell>
        <mxCell id="WCAbZ16qtilHg59DiqFT-93" value="" style="endArrow=none;html=1;rounded=0;fontSize=12;startSize=8;endSize=8;curved=1;exitX=0.5;exitY=0;exitDx=0;exitDy=0;" edge="1" parent="WIyWlLk6GJQsqaUBKTNV-1" source="WCAbZ16qtilHg59DiqFT-46">
          <mxGeometry width="50" height="50" relative="1" as="geometry">
            <mxPoint x="-130" y="220" as="sourcePoint" />
            <mxPoint x="-160" y="140" as="targetPoint" />
          </mxGeometry>
        </mxCell>
        <mxCell id="WCAbZ16qtilHg59DiqFT-94" value="" style="endArrow=none;html=1;rounded=0;fontSize=12;startSize=8;endSize=8;curved=1;exitX=0.5;exitY=0;exitDx=0;exitDy=0;" edge="1" parent="WIyWlLk6GJQsqaUBKTNV-1" source="WCAbZ16qtilHg59DiqFT-44">
          <mxGeometry width="50" height="50" relative="1" as="geometry">
            <mxPoint x="-120" y="230" as="sourcePoint" />
            <mxPoint x="-160" y="140" as="targetPoint" />
          </mxGeometry>
        </mxCell>
        <mxCell id="WCAbZ16qtilHg59DiqFT-95" value="" style="endArrow=none;html=1;rounded=0;fontSize=12;startSize=8;endSize=8;curved=1;entryX=0.5;entryY=1;entryDx=0;entryDy=0;exitX=0.5;exitY=0;exitDx=0;exitDy=0;" edge="1" parent="WIyWlLk6GJQsqaUBKTNV-1" source="WCAbZ16qtilHg59DiqFT-39" target="WCAbZ16qtilHg59DiqFT-31">
          <mxGeometry width="50" height="50" relative="1" as="geometry">
            <mxPoint x="30" y="1050" as="sourcePoint" />
            <mxPoint x="100" y="950" as="targetPoint" />
          </mxGeometry>
        </mxCell>
        <mxCell id="WCAbZ16qtilHg59DiqFT-96" value="" style="endArrow=none;html=1;rounded=0;fontSize=12;startSize=8;endSize=8;curved=1;entryX=0;entryY=0.75;entryDx=0;entryDy=0;exitX=1;exitY=0;exitDx=0;exitDy=0;" edge="1" parent="WIyWlLk6GJQsqaUBKTNV-1" source="WCAbZ16qtilHg59DiqFT-38" target="WCAbZ16qtilHg59DiqFT-31">
          <mxGeometry width="50" height="50" relative="1" as="geometry">
            <mxPoint x="40" y="1060" as="sourcePoint" />
            <mxPoint x="110" y="960" as="targetPoint" />
          </mxGeometry>
        </mxCell>
        <mxCell id="WCAbZ16qtilHg59DiqFT-97" value="" style="endArrow=none;html=1;rounded=0;fontSize=12;startSize=8;endSize=8;curved=1;entryX=1;entryY=0.75;entryDx=0;entryDy=0;exitX=0.056;exitY=0.275;exitDx=0;exitDy=0;exitPerimeter=0;" edge="1" parent="WIyWlLk6GJQsqaUBKTNV-1" source="WCAbZ16qtilHg59DiqFT-37" target="WCAbZ16qtilHg59DiqFT-31">
          <mxGeometry width="50" height="50" relative="1" as="geometry">
            <mxPoint x="50" y="1070" as="sourcePoint" />
            <mxPoint x="120" y="970" as="targetPoint" />
          </mxGeometry>
        </mxCell>
        <mxCell id="WCAbZ16qtilHg59DiqFT-98" value="" style="endArrow=none;html=1;rounded=0;fontSize=12;startSize=8;endSize=8;curved=1;entryX=1;entryY=0.25;entryDx=0;entryDy=0;exitX=0;exitY=0.5;exitDx=0;exitDy=0;" edge="1" parent="WIyWlLk6GJQsqaUBKTNV-1" source="WCAbZ16qtilHg59DiqFT-41" target="WCAbZ16qtilHg59DiqFT-31">
          <mxGeometry width="50" height="50" relative="1" as="geometry">
            <mxPoint x="60" y="1080" as="sourcePoint" />
            <mxPoint x="130" y="980" as="targetPoint" />
          </mxGeometry>
        </mxCell>
      </root>
    </mxGraphModel>
  </diagram>
</mxfile>
